<svg width="12" height="12" viewBox="0 0 12 12" fill="none" xmlns="http://www.w3.org/2000/svg">
<rect width="12" height="12" fill="#FAFAFA"/>
<rect x="-489.5" y="-726.5" width="1151" height="1334" fill="white"/>
<rect width="20" height="20" transform="translate(-4 -4)" fill="white"/>
<path fill-rule="evenodd" clip-rule="evenodd" d="M6.44192 6.60543L6 5.99945C6.44192 6.60543 6.44203 6.60534 6.44192 6.60543L6.44081 6.60623L6.43906 6.6075L6.43367 6.6114L6.41551 6.62441C6.40019 6.63533 6.37851 6.65065 6.351 6.66976C6.29601 6.70795 6.21753 6.76143 6.11991 6.82522C5.92533 6.95238 5.65135 7.12269 5.33336 7.29521C4.72954 7.62279 3.8467 8.02633 3.02456 8.05327C2.51988 8.06981 1.98155 7.94626 1.5 7.78454V10.0545C1.54811 10.0772 1.59771 10.1 1.64852 10.1226C2.21788 10.3768 2.69908 10.508 2.95087 10.4997C3.20946 10.4912 3.69379 10.3201 4.26042 10.0127C4.5116 9.87646 4.73185 9.73969 4.88911 9.63693C4.96708 9.58598 5.02788 9.54449 5.06738 9.51705C5.08569 9.50433 5.09932 9.49471 5.10784 9.48865L5.11592 9.48251C5.13396 9.46889 5.15854 9.45051 5.18912 9.42806C5.25017 9.38323 5.33566 9.32178 5.44113 9.24935C5.65053 9.10553 5.94652 8.913 6.29238 8.71969C6.90767 8.37578 7.96885 7.86055 9.04259 7.89104C9.55217 7.90552 10.0508 8.04241 10.5 8.22505V6.06699C9.94906 5.71346 9.38694 5.45651 8.97871 5.44492C8.56402 5.43314 7.96962 5.66461 7.39015 5.9885C7.11952 6.13976 6.88343 6.2931 6.71494 6.40883C6.63108 6.46642 6.56494 6.51402 6.52074 6.54647C6.49867 6.56268 6.48213 6.57506 6.47167 6.58296L6.46062 6.59135L6.45911 6.5925L6.45061 6.59909L6.44192 6.60543ZM12 10.9555C12 10.9555 11.3263 10.3466 10.5 9.88825C10.0174 9.62053 9.48279 9.40415 9 9.39044C7.73127 9.35441 6 10.6947 6 10.6947C6 10.6947 4.26858 11.9573 3 11.9989C1.76566 12.0393 0 10.9555 0 10.9555V1.56507C0 1.56507 0.684942 1.96997 1.5 2.2753C1.99334 2.46012 2.53435 2.60846 3 2.60846C4.23495 2.60846 6 1.30423 6 1.30423C6.89142 2.51062 6.89122 2.51077 6.89101 2.51092L6.88951 2.51202L6.88694 2.51391L6.87985 2.51911L6.858 2.53498C6.8401 2.5479 6.81558 2.56545 6.78502 2.58695C6.72398 2.62991 6.63833 2.68902 6.5327 2.75892C6.32288 2.89777 6.02701 3.08399 5.68337 3.2721C5.07209 3.60672 4.02942 4.10846 3 4.10846C2.49138 4.10846 1.97002 4.0007 1.5 3.8588V6.18051C2.03418 6.40573 2.57987 6.56704 2.97544 6.55408C3.42188 6.53945 4.03904 6.29087 4.61807 5.97674C4.89151 5.82839 5.12967 5.68044 5.29937 5.56955C5.3839 5.51432 5.45059 5.46883 5.49525 5.43781C5.51757 5.42231 5.53432 5.41046 5.54498 5.40287L5.55289 5.3972L5.56783 5.38585C5.58335 5.37413 5.60525 5.35775 5.63299 5.33738C5.68843 5.29668 5.76746 5.23985 5.86573 5.17236C6.06149 5.03791 6.33752 4.85844 6.6583 4.67915C7.26165 4.34191 8.16724 3.92127 9.02129 3.94552C9.52773 3.95991 10.0414 4.13136 10.5 4.34931V2.27277C10.3965 2.1949 10.2814 2.11219 10.1585 2.0302C9.59251 1.65244 9.17036 1.5 9 1.5C8.75231 1.5 8.28915 1.65642 7.73787 1.96301C7.49452 2.09835 7.28216 2.2355 7.13089 2.33887C7.05598 2.39007 6.99789 2.43172 6.96054 2.45903C6.94191 2.47265 6.92857 2.48261 6.92101 2.48829L6.91434 2.49334C6.91394 2.49364 6.91397 2.49363 6.91434 2.49334L6.904 2.50132L6.89101 2.51092L6 1.30423C6 1.30423 7.69014 0 9 0C10.3099 0 12 1.56507 12 1.56507V10.9555Z" fill="black"/>
<rect x="-29.5" y="-50.5" width="71" height="73" rx="4.5" stroke="#7B61FF" stroke-dasharray="10 5"/>
<rect x="-489.5" y="-726.5" width="1151" height="1334" stroke="#DDDDDD"/>
</svg>
