<svg width="32" height="32" fill="none" xmlns="http://www.w3.org/2000/svg">
    <path
        d="M6.767 16.386C8.879 18.443 16 25 16 25s7.12-6.557 9.233-8.614c2.113-2.057 2.424-5.441.425-7.603a5.511 5.511 0 00-1.79-1.287 5.64 5.64 0 00-4.358-.114c-.687.266-1.157.637-1.83 1.17l-.029.022c-.69.544-1.651 1.603-1.651 1.603s-.962-1.06-1.651-1.603l-.028-.023c-.674-.532-1.144-.903-1.83-1.17a5.65 5.65 0 00-4.359.115 5.51 5.51 0 00-1.79 1.287c-2 2.162-1.688 5.546.425 7.603z"
        stroke="#000"
        stroke-width="2"
    ></path>
</svg>