<svg
    class="fav fav--checked"
    width="32"
    height="32"
    viewBox="0 0 32 32"
    fill="none"
    xmlns="http://www.w3.org/2000/svg"
>
    <path
        d="M6.76678 16.3861C8.87938 18.4432 16 25 16 25C16 25 23.1206 18.4432 25.2332 16.3861C27.3458 14.3291 27.6575 10.945 25.6583 8.78319C25.1575 8.24014 24.5483 7.80212 23.8679 7.49587C23.1876 7.18962 22.4502 7.02156 21.701 7.00194C20.9517 6.98232 20.2061 7.11156 19.5099 7.38176C18.8231 7.64824 18.3534 8.01905 17.6794 8.55116L17.6511 8.57353C16.9618 9.11765 16 10.1765 16 10.1765C16 10.1765 15.0382 9.11765 14.3489 8.57353L14.3206 8.55116C13.6466 8.01904 13.1769 7.64824 12.4901 7.38176C11.7939 7.11156 11.0483 6.98232 10.299 7.00194C9.54975 7.02156 8.81243 7.18962 8.13205 7.49587C7.45168 7.80212 6.84252 8.24014 6.34175 8.78319C4.34251 10.945 4.65419 14.3291 6.76678 16.3861Z"
        fill="black"
        stroke="black"
        stroke-width="2"
    />
</svg>
