<svg width="80" height="50" viewBox="0 0 39 20" fill="none" xmlns="http://www.w3.org/2000/svg">
    <path
        d="M9.544 19.104C13.352 19.104 16.096 17.368 19.4 13.448C22.704 16.808 25.504 19.048 29.368 19.048C34.912 19.048 38.664 15.184 38.664 10.032C38.664 4.88 34.912 0.903999 29.368 0.903999C25.504 0.903999 22.704 2.752 19.4 6.672C16.096 2.752 13.24 0.903999 9.544 0.903999C4 0.903999 0.0800002 4.88 0.0800002 10.032C0.0800002 15.184 4 19.104 9.544 19.104ZM9.656 15.184C6.8 15.184 4.28 13.056 4.28 10.088C4.28 7.12 6.8 4.936 9.656 4.936C12.176 4.936 14.416 6.952 16.992 10.088C14.416 13.168 12.176 15.184 9.656 15.184ZM29.2 15.184C26.68 15.184 24.384 13.168 21.808 10.088C24.384 7.008 26.68 4.992 29.2 4.992C32.056 4.992 34.408 7.12 34.408 10.088C34.408 13.056 32.056 15.184 29.2 15.184Z"
        fill="black"
    />
</svg>

