<svg width="14" height="13" viewBox="0 0 14 13" fill="none" xmlns="http://www.w3.org/2000/svg">
<line x1="8.53033" y1="8.46967" x2="12.5303" y2="12.4697" stroke="black" stroke-width="1.5"/>
<path fill-rule="evenodd" clip-rule="evenodd" d="M1.75 5.5C1.75 3.42893 3.42893 1.75 5.5 1.75C7.0955 1.75 8.45827 2.74641 9 4.1509V4H10.5326C9.88718 1.83138 7.87827 0.25 5.5 0.25C2.6005 0.25 0.25 2.6005 0.25 5.5C0.25 8.3995 2.6005 10.75 5.5 10.75C8.05773 10.75 10.1875 8.92151 10.6547 6.5H9.11536C8.67794 8.08536 7.22457 9.25 5.5 9.25C3.42893 9.25 1.75 7.57107 1.75 5.5Z" fill="black"/>
<path d="M6 4L10 4L10 0" stroke="black" stroke-width="1.5"/>
</svg>
